<svg xmlns="http://www.w3.org/2000/svg" width="14" height="14" viewBox="0 0 14 14">
  <g fill="#94A3B8" fill-rule="nonzero">
    <path
      d="M7 14c.96 0 1.863-.184 2.708-.55.845-.368 1.589-.874 2.232-1.517.644-.643 1.148-1.386 1.513-2.229C13.818 8.862 14 7.96 14 7c0-.96-.182-1.862-.547-2.704-.365-.843-.87-1.587-1.516-2.233C11.29 1.418 10.546.913 9.7.547 8.856.182 7.953 0 6.993 0c-.95 0-1.849.182-2.694.547-.845.365-1.59.87-2.236 1.516-.645.646-1.15 1.39-1.516 2.233C.182 5.138 0 6.04 0 7c0 .96.184 1.862.55 2.704.368.843.874 1.586 1.517 2.23.643.642 1.387 1.148 2.232 1.515C5.144 13.816 6.045 14 7 14zm-.003-4c-.18-.005-.315-.08-.407-.225L4.086 5.71c-.097-.155-.112-.312-.046-.472.066-.16.188-.239.366-.239h5.191c.173 0 .293.077.362.232.068.155.052.315-.05.48L7.412 9.774c-.096.155-.234.23-.415.225z"
      transform="translate(-510.000000, -259.000000) translate(510.000000, 259.000000) translate(7.000000, 7.000000) rotate(-90.000000) translate(-7.000000, -7.000000)"
    />
  </g>
</svg>
